HIERARCHY
ROOT Torso
{
	OFFSET 0.000000 0.000000 0.000000
	CHANNELS 6 Xposition Yposition Zposition Zrotation Yrotation Xrotation
	JOINT LeftHip
	{
		OFFSET 0.000000 0.000000 0.000000
		CHANNELS 6 Xposition Yposition Zposition Zrotation Yrotation Xrotation
		JOINT LeftThigh
		{
			OFFSET 0.055000 0.010000 -0.025000
			CHANNELS 3 Zrotation Yrotation Xrotation
			JOINT LeftShank
			{
				OFFSET 0.000000 -0.015000 -0.110000
				CHANNELS 6 Xposition Yposition Zposition Zrotation Yrotation Xrotation
				JOINT LeftFoot
				{
					OFFSET 0.000000 0.005000 -0.110000
					CHANNELS 6 Xposition Yposition Zposition Zrotation Yrotation Xrotation
					JOINT LeftFootBase
					{
						OFFSET 0.000000 -0.030000 -0.035000
						CHANNELS 6 Xposition Yposition Zposition Zrotation Yrotation Xrotation
						End Site
						{
							OFFSET 0.000000 -0.090000 0.000000
						}
					}
				}
			}
		}
	}
	JOINT RightHip
	{
		OFFSET 0.000000 0.000000 0.000000
		CHANNELS 6 Xposition Yposition Zposition Zrotation Yrotation Xrotation
		JOINT RightThigh
		{
			OFFSET -0.055000 0.010000 -0.025000
			CHANNELS 3 Zrotation Yrotation Xrotation
			JOINT RightShank
			{
				OFFSET 0.000000 -0.015000 -0.110000
				CHANNELS 6 Xposition Yposition Zposition Zrotation Yrotation Xrotation
				JOINT RightFoot
				{
					OFFSET 0.000000 0.005000 -0.110000
					CHANNELS 6 Xposition Yposition Zposition Zrotation Yrotation Xrotation
					JOINT RightFootBase
					{
						OFFSET 0.000000 -0.030000 -0.035000
						CHANNELS 6 Xposition Yposition Zposition Zrotation Yrotation Xrotation
						End Site
						{
							OFFSET 0.000000 -0.090000 0.000000
						}
					}
				}
			}
		}
	}
	JOINT Back
	{
		OFFSET 0.000000 0.000000 0.000000
		CHANNELS 6 Xposition Yposition Zposition Zrotation Yrotation Xrotation
		JOINT Neck
		{
			OFFSET 0.000000 0.000000 0.140000
			CHANNELS 3 Zrotation Yrotation Xrotation
			JOINT Head
			{
				OFFSET 0.000000 0.000000 0.105000
				CHANNELS 6 Xposition Yposition Zposition Zrotation Yrotation Xrotation
				End Site
				{
					OFFSET 0.000000 0.000000 0.065000
				}
			}
		}
		JOINT LeftShoulder
		{
			OFFSET 0.000000 0.000000 0.140000
			CHANNELS 3 Zrotation Yrotation Xrotation
			JOINT LeftUpperarm
			{
				OFFSET 0.098000 0.000000 0.025000
				CHANNELS 6 Xposition Yposition Zposition Zrotation Yrotation Xrotation
				JOINT LeftLowerarm
				{
					OFFSET 0.000000 -0.090000 0.009000
					CHANNELS 6 Xposition Yposition Zposition Zrotation Yrotation Xrotation
					End Site
					{
						OFFSET 0.000000 -0.100000 0.000000
					}
				}
			}
		}
		JOINT RightShoulder
		{
			OFFSET 0.000000 0.000000 0.140000
			CHANNELS 3 Zrotation Yrotation Xrotation
			JOINT RightUpperarm
			{
				OFFSET -0.098000 0.000000 0.025000
				CHANNELS 6 Xposition Yposition Zposition Zrotation Yrotation Xrotation
				JOINT RightLowerarm
				{
					OFFSET 0.000000 -0.090000 0.009000
					CHANNELS 6 Xposition Yposition Zposition Zrotation Yrotation Xrotation
					End Site
					{
						OFFSET 0.000000 -0.100000 0.000000
					}
				}
			}
		}
	}
}
MOTION
Frames: 10
Frame Time: 0.033333
0.000000 0.000000 0.000000 -0.000005 0.000000 0.000016 -0.000003 0.000003 0.000000 -41.792988 27.596724 16.742549 -132.369804 7.118267 38.721039 -0.000001 -0.015002 -0.109999 -0.000076 -0.000006 -10.367727 -0.000000 0.005000 -0.110000 -174.555634 24.944353 -36.663977 -0.000000 -0.029998 -0.035000 -7.708843 -0.285994 36.360212 0.000001 0.000001 -0.000002 44.797070 -30.352288 16.833244 128.752700 -7.165348 41.172052 0.000000 -0.015000 -0.110001 -0.000117 -0.000044 -10.367724 -0.000000 0.005002 -0.109999 172.174166 -26.241413 -32.130931 0.000000 -0.030000 -0.035000 10.185148 0.689356 32.877136 -0.000000 0.000004 0.000002 0.022441 -0.256140 -10.015269 0.067990 -0.424927 -1.666708 0.000000 -0.000002 0.104998 -0.108576 0.513018 24.529899 2.834233 -5.158074 5.372039 0.098002 0.000000 0.025000 -21.742780 103.826450 -102.824011 -0.000002 -0.090000 0.009002 0.000008 -0.000099 -5.710569 -3.297263 12.281439 3.568534 -0.098002 -0.000000 0.025000 20.279938 -110.553988 -100.236639 -0.000002 -0.090000 0.009000 -0.000007 0.000080 -5.710571 
0.000000 0.000000 0.000000 -1.641985 -3.783550 -5.188197 -0.000001 0.000003 -0.000002 -41.792985 27.596708 16.742549 -139.498704 0.019219 37.223199 0.000000 -0.015002 -0.109997 -0.000019 -0.000017 -33.615637 -0.000001 0.005000 -0.110000 -178.313604 25.594295 -53.488632 0.000000 -0.030000 -0.035000 -7.802117 -0.217698 36.043038 0.000004 0.000003 -0.000002 44.797080 -30.352282 16.833247 122.572676 -6.352443 70.181812 0.000000 -0.015002 -0.109998 -0.000169 0.000014 -61.513442 -0.000000 0.005003 -0.109998 167.027208 -27.529277 -41.803961 -0.000001 -0.029996 -0.035000 9.761154 0.970749 34.269050 -0.000000 0.000004 -0.000002 -0.686827 5.040423 8.348772 -3.090269 -4.572760 -9.344689 -0.000000 0.000004 0.105004 1.907448 6.229225 27.427897 0.334592 -10.219669 -4.966874 0.098000 -0.000000 0.025000 -29.752287 183.833585 -88.248134 -0.000000 -0.089998 0.008998 -21.962787 5.546882 33.746056 -8.710042 5.909380 -6.040417 -0.097998 -0.000000 0.025002 24.577070 -189.160737 -88.671565 0.000000 -0.090000 0.009000 18.006727 -3.273052 26.154627 
0.000000 0.000000 0.000000 -1.491893 -3.745634 -5.120193 0.000000 -0.000002 -0.000001 -41.792988 27.596720 16.742549 -139.549466 0.015836 36.469529 -0.000000 -0.015002 -0.109999 -0.000081 0.000052 -32.903948 0.000000 0.005001 -0.109999 -178.306583 25.594713 -53.479927 -0.000000 -0.030000 -0.035000 -7.896045 -0.149800 35.724738 0.000000 -0.000000 -0.000000 44.797056 -30.352288 16.833233 122.551994 -6.168604 70.237274 0.000000 -0.015001 -0.110000 -0.000104 -0.000067 -59.244808 -0.000000 0.005001 -0.110001 167.036921 -27.558411 -42.210521 -0.000000 -0.030002 -0.035000 9.111401 1.431727 36.444196 -0.000000 -0.000000 -0.000000 -0.744060 5.004670 8.447960 -3.071478 -4.544386 -8.995663 0.000000 0.000000 0.104998 2.095763 5.910184 26.762648 0.263930 -10.332318 -5.337990 0.098000 -0.000000 0.025002 -29.359408 183.824802 -88.348968 -0.000002 -0.090002 0.008996 -21.817362 5.450704 33.458966 -8.881880 5.740433 -6.384956 -0.098000 -0.000000 0.025002 24.695270 -189.214463 -88.955072 0.000000 -0.090000 0.009000 18.067802 -3.303134 26.268940 
0.000000 0.000000 0.000000 -1.238437 -4.009567 -5.050368 0.000000 0.000000 0.000001 -41.792999 27.596720 16.742546 -139.802689 -0.267211 35.920177 0.000000 -0.015002 -0.109998 -0.000096 -0.000001 -32.588653 0.000001 0.005003 -0.110000 -178.436547 25.586252 -53.755423 0.000000 -0.030000 -0.035000 -8.059803 -0.033209 35.172708 -0.000000 -0.000002 -0.000001 44.797070 -30.352285 16.833245 122.237573 -6.251895 70.354596 0.000000 -0.015000 -0.109998 -0.000092 0.000026 -56.980833 -0.000000 0.005003 -0.110000 166.934850 -27.575646 -42.389322 -0.000000 -0.029998 -0.035000 9.047976 1.478624 36.659265 0.000000 0.000000 0.000002 -0.769041 5.154608 8.330567 -3.200381 -4.356690 -8.658726 0.000000 0.000000 0.105000 1.930055 5.655072 26.267318 0.179086 -10.212159 -5.283606 0.098000 -0.000000 0.025002 -29.841834 183.671669 -88.245183 -0.000000 -0.090001 0.008998 -21.929002 5.524444 33.679314 -8.953597 5.867590 -6.351036 -0.098002 -0.000000 0.025002 24.095628 -189.253477 -88.981854 -0.000000 -0.090000 0.009004 18.147994 -3.342707 26.418943 
0.000000 0.000000 0.000000 -1.211254 -3.568005 -4.772091 0.000001 -0.000001 0.000002 -41.792988 27.596732 16.742556 -139.591882 0.168749 35.574340 0.000000 -0.015000 -0.109998 -0.000084 -0.000033 -32.042743 0.000000 0.005000 -0.110000 -178.468403 25.584461 -53.793945 -0.000000 -0.029996 -0.035000 -8.043548 -0.044683 35.227602 -0.000003 -0.000003 0.000001 44.797076 -30.352288 16.833249 122.949306 -6.129415 70.423915 -0.000000 -0.014997 -0.109998 -0.000107 0.000006 -54.643672 0.000000 0.005000 -0.110000 167.171189 -27.613504 -43.105409 -0.000001 -0.029996 -0.035000 7.913817 2.384695 40.608944 -0.000000 0.000000 -0.000000 -0.814085 4.655108 8.051490 -3.254149 -4.218177 -8.876755 0.000000 0.000000 0.105002 1.663162 5.572216 26.491182 0.166647 -10.107328 -4.415867 0.098000 0.000000 0.025002 -30.077093 183.078890 -87.398732 -0.000001 -0.090001 0.009000 -21.954794 5.541568 33.730343 -8.726232 6.104905 -5.519334 -0.097998 0.000000 0.025000 23.577145 -189.084785 -88.035087 0.000000 -0.090001 0.009000 18.019516 -3.279384 26.178679 
0.000000 0.000000 0.000000 -1.104586 -3.916976 -4.710116 0.000002 0.000000 -0.000000 -41.792988 27.596719 16.742547 -139.537486 -0.287798 34.843431 0.000000 -0.015002 -0.110000 -0.000062 0.000031 -31.349066 0.000000 0.004998 -0.110001 -178.767689 25.571170 -53.766453 0.000000 -0.029996 -0.035000 -7.935461 -0.121531 35.591634 -0.000001 0.000000 0.000001 44.797070 -30.352288 16.833252 122.672410 -6.359493 70.500844 0.000000 -0.015000 -0.109996 -0.000137 0.000026 -52.305537 -0.000000 0.004998 -0.110001 167.077519 -27.597545 -42.801715 -0.000000 -0.029998 -0.035000 8.223436 2.124544 39.510363 -0.000000 0.000002 -0.000000 -0.805457 5.053934 8.098745 -3.431283 -4.160207 -9.116353 0.000000 0.000002 0.105000 1.634463 5.426556 26.683964 0.022956 -10.369753 -4.358160 0.098000 0.000000 0.025000 -29.911461 183.098971 -87.165146 0.000001 -0.090002 0.009002 -21.848462 5.471171 33.520345 -8.849543 5.854416 -5.422178 -0.097996 -0.000000 0.025002 23.525610 -188.848256 -87.908687 -0.000000 -0.089999 0.009002 17.892505 -3.217331 25.941323 
0.000000 0.000000 0.000000 -1.123352 -4.007032 -4.616069 -0.000002 0.000001 0.000000 -41.792992 27.596732 16.742539 -139.286545 -0.498880 34.155840 0.000000 -0.014998 -0.110000 -0.000034 0.000075 -30.711812 -0.000000 0.004999 -0.109999 -179.064119 25.558523 -53.677972 -0.000000 -0.030000 -0.035000 -7.825991 -0.200371 35.962124 -0.000000 0.000000 0.000000 44.797070 -30.352288 16.833242 122.836526 -6.591870 70.433724 0.000000 -0.015000 -0.110000 -0.000157 0.000015 -49.800849 -0.000001 0.005002 -0.109999 166.985981 -27.593269 -42.677296 0.000000 -0.030002 -0.035000 8.363254 2.010370 39.019710 0.000000 0.000000 0.000002 -0.771811 5.261696 8.426871 -3.255281 -4.537529 -9.527554 -0.000000 -0.000002 0.105002 1.999686 5.439150 26.476661 0.120972 -10.610065 -5.451013 0.097998 -0.000000 0.025002 -30.449680 183.509151 -87.779638 0.000002 -0.089999 0.009004 -21.952786 5.540266 33.726484 -9.051798 5.448550 -6.450778 -0.097998 0.000000 0.025002 23.545165 -188.993889 -88.724308 -0.000000 -0.090000 0.009002 17.874586 -3.208654 25.907953 
0.000000 0.000000 0.000000 -1.058978 -4.071107 -4.480485 0.000000 0.000000 0.000000 -41.792999 27.596710 16.742552 -139.099739 -0.605499 33.298637 0.000000 -0.014998 -0.110000 -0.000002 -0.000010 -29.681898 -0.000000 0.005000 -0.110000 -179.292042 25.550862 -53.353674 0.000000 -0.029996 -0.035000 -7.413475 -0.507523 37.372760 -0.000000 0.000000 0.000000 44.797073 -30.352282 16.833244 123.178924 -6.969755 70.312214 -0.000000 -0.015001 -0.110000 -0.000121 -0.000026 -47.269414 -0.000001 0.005004 -0.109996 166.836578 -27.613174 -42.872650 0.000000 -0.030002 -0.035000 8.454481 1.936802 38.701033 0.000000 0.000000 -0.000000 -0.738071 5.324651 8.252300 -3.500724 -4.440020 -9.350163 0.000000 0.000000 0.105002 1.387651 5.547496 26.363021 0.166188 -10.508030 -5.264942 0.097996 0.000000 0.025002 -30.923104 183.308180 -87.697710 -0.000001 -0.089999 0.009000 -22.004853 5.574870 33.829179 -8.956617 5.578349 -6.285644 -0.097998 0.000000 0.025006 23.336738 -189.138593 -88.650248 0.000000 -0.090001 0.009000 17.852212 -3.197885 25.866183 
0.000000 0.000000 0.000000 -0.858199 -4.002252 -4.290977 0.000001 0.000000 0.000001 -41.792985 27.596713 16.742547 -138.763598 -0.609717 32.695395 -0.000000 -0.015000 -0.109999 -0.000014 0.000010 -28.749390 0.000000 0.005002 -0.109999 -179.324827 25.552207 -52.848169 0.000000 -0.029998 -0.035000 -7.825915 -0.200435 35.962421 0.000002 0.000001 0.000000 44.797070 -30.352295 16.833239 123.535214 -7.236122 70.044321 0.000000 -0.015000 -0.110000 -0.000085 -0.000029 -44.600200 -0.000000 0.005003 -0.109997 166.636221 -27.643410 -43.197989 0.000000 -0.030002 -0.035000 8.611872 1.812070 38.154574 0.000000 0.000000 0.000002 -0.925901 5.316977 8.127271 -3.708287 -4.350661 -9.125720 0.000000 -0.000002 0.105002 1.653962 5.100271 26.175894 -0.141149 -10.689820 -5.759551 0.098000 -0.000000 0.025002 -30.324421 183.670193 -88.199339 -0.000001 -0.090001 0.009002 -21.927817 5.523664 33.677047 -9.397956 5.321280 -6.738596 -0.098002 -0.000000 0.025002 23.646134 -189.234926 -89.157751 -0.000000 -0.090003 0.008998 17.818558 -3.181604 25.803382 
0.000000 0.000000 0.000000 -0.539290 -3.955725 -4.114077 -0.000003 -0.000000 0.000003 -41.792988 27.596724 16.742544 -138.588322 -0.565891 31.870892 0.000000 -0.015000 -0.110000 -0.000104 0.000002 -27.778933 0.000000 0.005002 -0.109999 -179.441405 25.547679 -52.598132 0.000000 -0.030002 -0.035000 -8.226370 0.082963 34.614893 -0.000000 0.000000 0.000001 44.797070 -30.352285 16.833245 123.939055 -7.661891 69.799889 -0.000000 -0.015000 -0.109998 -0.000155 0.000001 -41.990371 0.000000 0.004998 -0.110001 166.308358 -27.681196 -43.565084 0.000000 -0.029998 -0.035000 8.963196 1.542040 36.947840 0.000000 -0.000002 0.000000 -0.986279 5.216105 7.227221 -3.843785 -4.213981 -8.152112 -0.000000 0.000002 0.105000 1.421402 5.006554 25.967162 -0.367781 -10.546475 -4.073743 0.098000 0.000000 0.025000 -31.082688 183.008744 -87.351788 0.000000 -0.090000 0.008998 -21.935525 5.528769 33.692305 -9.157887 5.722706 -5.117118 -0.098000 0.000000 0.025002 23.203618 -189.174383 -88.243326 0.000000 -0.089999 0.009000 17.677523 -3.113873 25.540412 
